<svg width="113" height="50" viewBox="0 0 113 50" fill="none" xmlns="http://www.w3.org/2000/svg">
<path d="M10.44 23.3C9.24 23.3 8.15 23.02 7.17 22.46C6.21 21.88 5.45 21.11 4.89 20.15V23H1.98V1.1H5.28V10.28C5.9 9.28 6.67 8.49 7.59 7.91C8.53 7.33 9.63 7.04 10.89 7.04C11.93 7.04 12.88 7.26 13.74 7.7C14.6 8.14 15.33 8.74 15.93 9.5C16.55 10.26 17.02 11.13 17.34 12.11C17.68 13.09 17.85 14.13 17.85 15.23C17.85 16.33 17.66 17.37 17.28 18.35C16.92 19.33 16.4 20.19 15.72 20.93C15.04 21.67 14.25 22.25 13.35 22.67C12.47 23.09 11.5 23.3 10.44 23.3ZM9.57 20.48C10.29 20.48 10.95 20.34 11.55 20.06C12.15 19.76 12.67 19.37 13.11 18.89C13.55 18.41 13.88 17.85 14.1 17.21C14.34 16.57 14.46 15.91 14.46 15.23C14.46 14.29 14.26 13.41 13.86 12.59C13.48 11.77 12.94 11.11 12.24 10.61C11.54 10.11 10.73 9.86 9.81 9.86C9.15 9.86 8.53 10.02 7.95 10.34C7.37 10.64 6.85 11.05 6.39 11.57C5.95 12.07 5.58 12.63 5.28 13.25V17.39C5.4 17.85 5.61 18.27 5.91 18.65C6.21 19.01 6.56 19.33 6.96 19.61C7.36 19.87 7.79 20.08 8.25 20.24C8.71 20.4 9.15 20.48 9.57 20.48ZM19.3179 23V7.31H22.6179V23H19.3179ZM19.3179 4.73V1.1H22.6179V4.73H19.3179ZM24.0935 15.17C24.0935 13.67 24.3935 12.31 24.9935 11.09C25.6135 9.85 26.4535 8.87 27.5135 8.15C28.5735 7.41 29.7935 7.04 31.1735 7.04C32.3735 7.04 33.4535 7.35 34.4135 7.97C35.3935 8.59 36.1535 9.36 36.6935 10.28V1.1H39.9935V19.28C39.9935 19.66 40.0635 19.93 40.2035 20.09C40.3435 20.25 40.5735 20.34 40.8935 20.36V23C40.2735 23.1 39.7935 23.15 39.4535 23.15C38.8335 23.15 38.3035 22.97 37.8635 22.61C37.4435 22.25 37.2235 21.82 37.2035 21.32L37.1735 20.15C36.5735 21.15 35.7635 21.93 34.7435 22.49C33.7235 23.03 32.6635 23.3 31.5635 23.3C30.4835 23.3 29.4835 23.09 28.5635 22.67C27.6635 22.25 26.8735 21.66 26.1935 20.9C25.5335 20.14 25.0135 19.27 24.6335 18.29C24.2735 17.31 24.0935 16.27 24.0935 15.17ZM36.6935 17.36V13.25C36.4735 12.61 36.1135 12.04 35.6135 11.54C35.1335 11.02 34.5835 10.61 33.9635 10.31C33.3635 10.01 32.7635 9.86 32.1635 9.86C31.4635 9.86 30.8235 10.01 30.2435 10.31C29.6835 10.61 29.1935 11.01 28.7735 11.51C28.3735 12.01 28.0635 12.58 27.8435 13.22C27.6235 13.86 27.5135 14.53 27.5135 15.23C27.5135 15.95 27.6335 16.63 27.8735 17.27C28.1135 17.89 28.4535 18.45 28.8935 18.95C29.3535 19.43 29.8735 19.81 30.4535 20.09C31.0535 20.35 31.7035 20.48 32.4035 20.48C32.8435 20.48 33.2835 20.4 33.7235 20.24C34.1835 20.08 34.6135 19.86 35.0135 19.58C35.4335 19.3 35.7835 18.97 36.0635 18.59C36.3635 18.21 36.5735 17.8 36.6935 17.36ZM41.5451 18.41C41.5451 17.41 41.8251 16.54 42.3851 15.8C42.9651 15.04 43.7551 14.46 44.7551 14.06C45.7551 13.64 46.9151 13.43 48.2351 13.43C48.9351 13.43 49.6451 13.48 50.3651 13.58C51.1051 13.68 51.7551 13.84 52.3151 14.06V13.07C52.3151 11.97 51.9851 11.11 51.3251 10.49C50.6651 9.87 49.7151 9.56 48.4751 9.56C47.5951 9.56 46.7651 9.72 45.9851 10.04C45.2051 10.34 44.3751 10.77 43.4951 11.33L42.3851 9.11C43.4251 8.41 44.4651 7.89 45.5051 7.55C46.5651 7.21 47.6751 7.04 48.8351 7.04C50.9351 7.04 52.5851 7.6 53.7851 8.72C55.0051 9.82 55.6151 11.39 55.6151 13.43V19.28C55.6151 19.66 55.6751 19.93 55.7951 20.09C55.9351 20.25 56.1651 20.34 56.4851 20.36V23C56.1851 23.06 55.9151 23.1 55.6751 23.12C55.4351 23.14 55.2351 23.15 55.0751 23.15C54.3751 23.15 53.8451 22.98 53.4851 22.64C53.1251 22.3 52.9151 21.9 52.8551 21.44L52.7651 20.54C52.0851 21.42 51.2151 22.1 50.1551 22.58C49.0951 23.06 48.0251 23.3 46.9451 23.3C45.9051 23.3 44.9751 23.09 44.1551 22.67C43.3351 22.23 42.6951 21.64 42.2351 20.9C41.7751 20.16 41.5451 19.33 41.5451 18.41ZM51.5351 19.37C51.7751 19.11 51.9651 18.85 52.1051 18.59C52.2451 18.33 52.3151 18.1 52.3151 17.9V16.1C51.7551 15.88 51.1651 15.72 50.5451 15.62C49.9251 15.5 49.3151 15.44 48.7151 15.44C47.5151 15.44 46.5351 15.68 45.7751 16.16C45.0351 16.64 44.6651 17.3 44.6651 18.14C44.6651 18.6 44.7851 19.04 45.0251 19.46C45.2851 19.88 45.6451 20.22 46.1051 20.48C46.5851 20.74 47.1751 20.87 47.8751 20.87C48.5951 20.87 49.2851 20.73 49.9451 20.45C50.6051 20.17 51.1351 19.81 51.5351 19.37ZM72.1887 23H68.8887V14.21C68.8887 12.75 68.6487 11.68 68.1687 11C67.7087 10.32 67.0187 9.98 66.0987 9.98C65.4587 9.98 64.8187 10.14 64.1787 10.46C63.5587 10.78 62.9987 11.22 62.4987 11.78C61.9987 12.32 61.6387 12.95 61.4187 13.67V23H58.1187V7.31H61.1187V10.46C61.5187 9.76 62.0387 9.16 62.6787 8.66C63.3387 8.14 64.0787 7.74 64.8987 7.46C65.7187 7.18 66.5887 7.04 67.5087 7.04C68.4487 7.04 69.2187 7.21 69.8187 7.55C70.4387 7.89 70.9187 8.36 71.2587 8.96C71.6187 9.54 71.8587 10.22 71.9787 11C72.1187 11.76 72.1887 12.57 72.1887 13.43V23ZM80.7291 23.15C79.6691 23.15 78.6991 22.94 77.8191 22.52C76.9391 22.08 76.1791 21.49 75.5391 20.75C74.9191 20.01 74.4291 19.16 74.0691 18.2C73.7291 17.24 73.5591 16.23 73.5591 15.17C73.5591 14.05 73.7391 13 74.0991 12.02C74.4591 11.04 74.9591 10.18 75.5991 9.44C76.2591 8.68 77.0291 8.09 77.9091 7.67C78.7891 7.25 79.7691 7.04 80.8491 7.04C82.1091 7.04 83.2091 7.34 84.1491 7.94C85.1091 8.54 85.8991 9.32 86.5191 10.28V7.31H89.4291V22.55C89.4291 24.07 89.0591 25.36 88.3191 26.42C87.5991 27.48 86.6091 28.29 85.3491 28.85C84.0891 29.41 82.6691 29.69 81.0891 29.69C79.3491 29.69 77.9091 29.39 76.7691 28.79C75.6291 28.19 74.6591 27.37 73.8591 26.33L75.7191 24.59C76.3191 25.43 77.0891 26.07 78.0291 26.51C78.9891 26.95 80.0091 27.17 81.0891 27.17C81.9891 27.17 82.8191 27 83.5791 26.66C84.3591 26.34 84.9791 25.83 85.4391 25.13C85.8991 24.45 86.1291 23.59 86.1291 22.55V20.15C85.5691 21.09 84.7991 21.83 83.8191 22.37C82.8391 22.89 81.8091 23.15 80.7291 23.15ZM81.8091 20.48C82.3091 20.48 82.7891 20.4 83.2491 20.24C83.7091 20.06 84.1291 19.83 84.5091 19.55C84.9091 19.25 85.2491 18.92 85.5291 18.56C85.8091 18.18 86.0091 17.78 86.1291 17.36V13.25C85.8691 12.57 85.4991 11.98 85.0191 11.48C84.5391 10.96 83.9991 10.56 83.3991 10.28C82.7991 10 82.1891 9.86 81.5691 9.86C80.8491 9.86 80.1991 10.02 79.6191 10.34C79.0591 10.64 78.5791 11.05 78.1791 11.57C77.7791 12.07 77.4691 12.64 77.2491 13.28C77.0291 13.92 76.9191 14.58 76.9191 15.26C76.9191 15.98 77.0391 16.65 77.2791 17.27C77.5391 17.89 77.8891 18.45 78.3291 18.95C78.7691 19.43 79.2891 19.81 79.8891 20.09C80.4891 20.35 81.1291 20.48 81.8091 20.48ZM2.4 48V26.7H5.76V48H2.4ZM8.68383 26.1H11.9838V43.47C11.9838 44.27 12.1038 44.78 12.3438 45C12.5838 45.22 12.8838 45.33 13.2438 45.33C13.6438 45.33 14.0138 45.29 14.3538 45.21C14.7138 45.13 15.0238 45.03 15.2838 44.91L15.7638 47.52C15.2838 47.72 14.7138 47.89 14.0538 48.03C13.3938 48.17 12.8038 48.24 12.2838 48.24C11.1638 48.24 10.2838 47.93 9.64383 47.31C9.00383 46.67 8.68383 45.79 8.68383 44.67V26.1ZM40.1773 48H36.8773V39.21C36.8773 37.75 36.6373 36.68 36.1573 36C35.6773 35.32 34.9773 34.98 34.0573 34.98C33.1373 34.98 32.2773 35.33 31.4773 36.03C30.6973 36.71 30.1473 37.6 29.8273 38.7V48H26.5273V39.21C26.5273 37.75 26.2873 36.68 25.8073 36C25.3273 35.32 24.6373 34.98 23.7373 34.98C22.8173 34.98 21.9573 35.32 21.1573 36C20.3773 36.68 19.8173 37.57 19.4773 38.67V48H16.1773V32.31H19.1773V35.46C19.7973 34.36 20.6073 33.52 21.6073 32.94C22.6273 32.34 23.7873 32.04 25.0873 32.04C26.3873 32.04 27.4073 32.38 28.1473 33.06C28.9073 33.74 29.3773 34.59 29.5573 35.61C30.2373 34.45 31.0673 33.57 32.0473 32.97C33.0473 32.35 34.1873 32.04 35.4673 32.04C36.3873 32.04 37.1573 32.21 37.7773 32.55C38.3973 32.89 38.8773 33.36 39.2173 33.96C39.5573 34.54 39.7973 35.22 39.9373 36C40.0973 36.76 40.1773 37.57 40.1773 38.43V48ZM42.33 41.91V32.31H45.63V41.25C45.63 42.65 45.88 43.71 46.38 44.43C46.9 45.13 47.65 45.48 48.63 45.48C49.25 45.48 49.85 45.35 50.43 45.09C51.03 44.83 51.57 44.45 52.05 43.95C52.55 43.43 52.95 42.81 53.25 42.09V32.31H56.55V44.28C56.55 44.66 56.62 44.93 56.76 45.09C56.9 45.25 57.13 45.34 57.45 45.36V48C57.11 48.06 56.83 48.1 56.61 48.12C56.39 48.14 56.18 48.15 55.98 48.15C55.38 48.15 54.88 47.99 54.48 47.67C54.08 47.33 53.85 46.9 53.79 46.38L53.73 44.82C53.03 45.96 52.12 46.83 51 47.43C49.88 48.01 48.65 48.3 47.31 48.3C45.67 48.3 44.43 47.76 43.59 46.68C42.75 45.6 42.33 44.01 42.33 41.91Z" fill="#377DFF"/>
<path d="M72.25 48.325V45.575H57.775C57.1083 45.575 56.6833 45.475 56.5 45.275C56.3167 45.075 56.225 44.825 56.225 44.525C56.225 44.1917 56.2583 43.8833 56.325 43.6C56.3917 43.3 56.475 43.0417 56.575 42.825L54.4 42.425C54.2333 42.825 54.0917 43.3 53.975 43.85C53.8583 44.4 53.8 44.8917 53.8 45.325C53.8 46.2583 54.0583 46.9917 54.575 47.525C55.1083 48.0583 55.8417 48.325 56.775 48.325H72.25Z" fill="#377DFF"/>
</svg>
